<svg width="266" height="265" viewBox="0 0 266 265" fill="none" xmlns="http://www.w3.org/2000/svg">
<path d="M212.675 0H53.3254C23.8746 0 0 23.7848 0 53.1249V211.875C0 241.215 23.8746 265 53.3254 265H212.675C242.125 265 266 241.215 266 211.875V53.1249C266 23.7848 242.125 0 212.675 0Z" fill="#3EC6FF"/>
<path fill-rule="evenodd" clip-rule="evenodd" d="M215.754 80.5734C215.754 77.4943 213.207 74.9974 210.064 74.9974H56.349C53.206 74.9974 50.6592 77.4943 50.6592 80.5734V188.877C50.6592 191.957 53.206 194.454 56.349 194.454H210.064C213.206 194.454 215.754 191.957 215.754 188.877V80.5734Z" stroke="white" stroke-width="5"/>
<path fill-rule="evenodd" clip-rule="evenodd" d="M93.4668 131.95C101.735 131.95 108.438 125.388 108.438 117.294C108.438 109.2 101.735 102.639 93.4668 102.639C85.1992 102.639 78.4962 109.2 78.4962 117.294C78.4962 125.388 85.1992 131.95 93.4668 131.95Z" stroke="white" stroke-width="5"/>
<path d="M86.4586 194.457L136.05 126.069L156.555 153.156L182.925 112.559L215.756 159.298" stroke="white" stroke-width="5"/>
</svg>
