<svg width="68" height="67" viewBox="0 0 68 67" fill="none" xmlns="http://www.w3.org/2000/svg">
<path d="M51.1977 0H16.8023C7.52266 0 0 7.41203 0 16.5552V50.4448C0 59.588 7.52266 67 16.8023 67H51.1977C60.4773 67 68 59.588 68 50.4448V16.5552C68 7.41203 60.4773 0 51.1977 0Z" fill="white"/>
<path d="M56.9303 54.5363V52.0238C56.9303 51.3192 56.5139 50.6868 55.8848 50.4372C48.5019 47.499 40.3057 43.8505 39.6171 41.5771V39.1922C41.1485 37.5787 42.3566 35.3282 43.0714 32.6936C44.7892 31.4516 45.2164 28.8912 43.7945 27.09V21.7509C43.7945 16.2394 40.8141 12.4664 34.0011 12.4664C27.3636 12.4664 24.204 16.2394 24.204 21.7509V27.092C22.7853 28.8902 23.2114 31.449 24.9269 32.6926C25.6417 35.3282 26.8507 37.5784 28.3831 39.1919V41.5768C27.6962 43.8475 19.4984 47.497 12.1154 50.4368C11.4864 50.6885 11.07 51.3186 11.07 52.0235V54.5359" stroke="#1E789D" stroke-width="3"/>
</svg>
